<mxfile host="app.diagrams.net" modified="2024-01-21T19:00:09.581Z" agent="Mozilla/5.0 (Windows NT 10.0; Win64; x64) AppleWebKit/537.36 (KHTML, like Gecko) Chrome/120.0.0.0 Safari/537.36" etag="ZcQX0E0c8NfETu3theQ9" version="22.1.21" type="github">
  <diagram id="prtHgNgQTEPvFCAcTncT" name="Page-1">
    <mxGraphModel dx="1247" dy="649" grid="1" gridSize="10" guides="1" tooltips="1" connect="1" arrows="1" fold="1" page="1" pageScale="1" pageWidth="827" pageHeight="1169" math="0" shadow="0">
      <root>
        <mxCell id="0" />
        <mxCell id="1" parent="0" />
        <mxCell id="dNxyNK7c78bLwvsdeMH5-19" value="Quy trình đấu nối TSA" style="swimlane;html=1;childLayout=stackLayout;resizeParent=1;resizeParentMax=0;horizontal=0;startSize=20;horizontalStack=0;" parent="1" vertex="1">
          <mxGeometry x="120" y="120" width="1840" height="570" as="geometry" />
        </mxCell>
        <mxCell id="dNxyNK7c78bLwvsdeMH5-20" value="Doanh nghiệp" style="swimlane;html=1;startSize=20;horizontal=0;" parent="dNxyNK7c78bLwvsdeMH5-19" vertex="1">
          <mxGeometry x="20" width="1820" height="245" as="geometry" />
        </mxCell>
        <mxCell id="dNxyNK7c78bLwvsdeMH5-25" value="" style="edgeStyle=orthogonalEdgeStyle;rounded=0;orthogonalLoop=1;jettySize=auto;html=1;" parent="dNxyNK7c78bLwvsdeMH5-20" source="dNxyNK7c78bLwvsdeMH5-23" target="dNxyNK7c78bLwvsdeMH5-24" edge="1">
          <mxGeometry relative="1" as="geometry" />
        </mxCell>
        <mxCell id="dNxyNK7c78bLwvsdeMH5-23" value="" style="ellipse;whiteSpace=wrap;html=1;" parent="dNxyNK7c78bLwvsdeMH5-20" vertex="1">
          <mxGeometry x="50" y="60" width="30" height="30" as="geometry" />
        </mxCell>
        <mxCell id="dNxyNK7c78bLwvsdeMH5-24" value="Liên hệ với Viettel để nhận hướng dẫn mua gói dịch vụ cấp Dấu thời gian" style="rounded=0;whiteSpace=wrap;html=1;fontFamily=Helvetica;fontSize=12;fontColor=#000000;align=center;" parent="dNxyNK7c78bLwvsdeMH5-20" vertex="1">
          <mxGeometry x="120" y="37.5" width="170" height="75" as="geometry" />
        </mxCell>
        <mxCell id="6jg0AIKtms3DlK0bJASd-9" value="" style="edgeStyle=orthogonalEdgeStyle;rounded=0;orthogonalLoop=1;jettySize=auto;html=1;" edge="1" parent="dNxyNK7c78bLwvsdeMH5-20" source="6jg0AIKtms3DlK0bJASd-6" target="6jg0AIKtms3DlK0bJASd-8">
          <mxGeometry relative="1" as="geometry" />
        </mxCell>
        <mxCell id="6jg0AIKtms3DlK0bJASd-6" value="Tạo tài khoản doanh nghiệp trên &lt;br&gt;ứng dụng MySign" style="whiteSpace=wrap;html=1;fontColor=#000000;rounded=0;" vertex="1" parent="dNxyNK7c78bLwvsdeMH5-20">
          <mxGeometry x="380" y="45" width="200" height="60" as="geometry" />
        </mxCell>
        <mxCell id="6jg0AIKtms3DlK0bJASd-8" value="Chọn gói dịch vụ cấp &lt;br&gt;Dấu thời gian" style="whiteSpace=wrap;html=1;fontColor=#000000;rounded=0;" vertex="1" parent="dNxyNK7c78bLwvsdeMH5-20">
          <mxGeometry x="620" y="45" width="190" height="60" as="geometry" />
        </mxCell>
        <mxCell id="6jg0AIKtms3DlK0bJASd-17" value="" style="edgeStyle=orthogonalEdgeStyle;rounded=0;orthogonalLoop=1;jettySize=auto;html=1;" edge="1" parent="dNxyNK7c78bLwvsdeMH5-20" source="6jg0AIKtms3DlK0bJASd-14" target="6jg0AIKtms3DlK0bJASd-16">
          <mxGeometry relative="1" as="geometry" />
        </mxCell>
        <mxCell id="6jg0AIKtms3DlK0bJASd-14" value="Bổ sung các thông tin liên &lt;br&gt;quan đến gói dịch vụ và máy chủ thực hiện chữ ký số" style="whiteSpace=wrap;html=1;fontColor=#000000;rounded=0;" vertex="1" parent="dNxyNK7c78bLwvsdeMH5-20">
          <mxGeometry x="1130" y="45" width="170" height="60" as="geometry" />
        </mxCell>
        <mxCell id="6jg0AIKtms3DlK0bJASd-16" value="Thực hiện kết nối với Viettel TSA Server thông qua API và nghiệm thu kết quả" style="whiteSpace=wrap;html=1;fontColor=#000000;rounded=0;" vertex="1" parent="dNxyNK7c78bLwvsdeMH5-20">
          <mxGeometry x="1330" y="45" width="170" height="60" as="geometry" />
        </mxCell>
        <mxCell id="6jg0AIKtms3DlK0bJASd-22" style="edgeStyle=orthogonalEdgeStyle;rounded=0;orthogonalLoop=1;jettySize=auto;html=1;entryX=0.75;entryY=1;entryDx=0;entryDy=0;exitX=1;exitY=0.5;exitDx=0;exitDy=0;exitPerimeter=0;" edge="1" parent="dNxyNK7c78bLwvsdeMH5-20" source="6jg0AIKtms3DlK0bJASd-20">
          <mxGeometry relative="1" as="geometry">
            <mxPoint x="1469.9999905482023" y="502.47826086956525" as="sourcePoint" />
            <mxPoint x="1477.5" y="105" as="targetPoint" />
            <Array as="points">
              <mxPoint x="1478" y="502" />
              <mxPoint x="1478" y="291" />
            </Array>
          </mxGeometry>
        </mxCell>
        <mxCell id="dNxyNK7c78bLwvsdeMH5-21" value="Nhân viên bán hàng" style="swimlane;html=1;startSize=20;horizontal=0;" parent="dNxyNK7c78bLwvsdeMH5-19" vertex="1">
          <mxGeometry x="20" y="245" width="1820" height="190" as="geometry" />
        </mxCell>
        <mxCell id="6jg0AIKtms3DlK0bJASd-4" value="Tiếp nhận yêu cầu và hướng dẫn khách hàng" style="whiteSpace=wrap;html=1;fontColor=#000000;rounded=0;" vertex="1" parent="dNxyNK7c78bLwvsdeMH5-21">
          <mxGeometry x="260" y="65" width="175" height="60" as="geometry" />
        </mxCell>
        <mxCell id="6jg0AIKtms3DlK0bJASd-13" value="" style="edgeStyle=orthogonalEdgeStyle;rounded=0;orthogonalLoop=1;jettySize=auto;html=1;" edge="1" parent="dNxyNK7c78bLwvsdeMH5-21" source="6jg0AIKtms3DlK0bJASd-10" target="6jg0AIKtms3DlK0bJASd-12">
          <mxGeometry relative="1" as="geometry" />
        </mxCell>
        <mxCell id="6jg0AIKtms3DlK0bJASd-10" value="Liên hệ với khách hàng, &lt;br&gt;cung cấp báo giá, tài liệu &lt;br&gt;hướng dẫn, API" style="whiteSpace=wrap;html=1;fontColor=#000000;rounded=0;" vertex="1" parent="dNxyNK7c78bLwvsdeMH5-21">
          <mxGeometry x="760" y="65" width="175" height="60" as="geometry" />
        </mxCell>
        <mxCell id="6jg0AIKtms3DlK0bJASd-12" value="Tạo license test API và yêu cầu khách hàng bổ sung thông tin hoàn thiện license" style="whiteSpace=wrap;html=1;fontColor=#000000;rounded=0;" vertex="1" parent="dNxyNK7c78bLwvsdeMH5-21">
          <mxGeometry x="981" y="65" width="179" height="60" as="geometry" />
        </mxCell>
        <mxCell id="6jg0AIKtms3DlK0bJASd-26" value="" style="edgeStyle=orthogonalEdgeStyle;rounded=0;orthogonalLoop=1;jettySize=auto;html=1;" edge="1" parent="dNxyNK7c78bLwvsdeMH5-21" source="6jg0AIKtms3DlK0bJASd-23" target="6jg0AIKtms3DlK0bJASd-25">
          <mxGeometry relative="1" as="geometry" />
        </mxCell>
        <mxCell id="6jg0AIKtms3DlK0bJASd-23" value="Lập và thực hiện ký hợp đồng với khách hàng" style="whiteSpace=wrap;html=1;fontColor=#000000;rounded=0;" vertex="1" parent="dNxyNK7c78bLwvsdeMH5-21">
          <mxGeometry x="1520" y="65" width="120" height="60" as="geometry" />
        </mxCell>
        <mxCell id="6jg0AIKtms3DlK0bJASd-25" value="" style="ellipse;whiteSpace=wrap;html=1;fontColor=#000000;rounded=0;" vertex="1" parent="dNxyNK7c78bLwvsdeMH5-21">
          <mxGeometry x="1740" y="55" width="80" height="80" as="geometry" />
        </mxCell>
        <mxCell id="dNxyNK7c78bLwvsdeMH5-22" value="Hệ thống Viettel-CA" style="swimlane;html=1;startSize=20;horizontal=0;" parent="dNxyNK7c78bLwvsdeMH5-19" vertex="1">
          <mxGeometry x="20" y="435" width="1820" height="135" as="geometry" />
        </mxCell>
        <mxCell id="6jg0AIKtms3DlK0bJASd-20" value="" style="points=[[0.145,0.145,0],[0.5,0,0],[0.855,0.145,0],[1,0.5,0],[0.855,0.855,0],[0.5,1,0],[0.145,0.855,0],[0,0.5,0]];shape=mxgraph.bpmn.event;html=1;verticalLabelPosition=bottom;labelBackgroundColor=#ffffff;verticalAlign=top;align=center;perimeter=ellipsePerimeter;outlineConnect=0;aspect=fixed;outline=eventNonint;symbol=message;" vertex="1" parent="dNxyNK7c78bLwvsdeMH5-22">
          <mxGeometry x="1400" y="42.5" width="50" height="50" as="geometry" />
        </mxCell>
        <mxCell id="6jg0AIKtms3DlK0bJASd-5" value="" style="edgeStyle=orthogonalEdgeStyle;rounded=0;orthogonalLoop=1;jettySize=auto;html=1;entryX=0;entryY=0.5;entryDx=0;entryDy=0;" edge="1" parent="dNxyNK7c78bLwvsdeMH5-19" source="dNxyNK7c78bLwvsdeMH5-24" target="6jg0AIKtms3DlK0bJASd-4">
          <mxGeometry relative="1" as="geometry" />
        </mxCell>
        <mxCell id="6jg0AIKtms3DlK0bJASd-7" value="" style="edgeStyle=orthogonalEdgeStyle;rounded=0;orthogonalLoop=1;jettySize=auto;html=1;exitX=1;exitY=0.5;exitDx=0;exitDy=0;" edge="1" parent="dNxyNK7c78bLwvsdeMH5-19" source="6jg0AIKtms3DlK0bJASd-4" target="6jg0AIKtms3DlK0bJASd-6">
          <mxGeometry relative="1" as="geometry" />
        </mxCell>
        <mxCell id="6jg0AIKtms3DlK0bJASd-11" style="edgeStyle=orthogonalEdgeStyle;rounded=0;orthogonalLoop=1;jettySize=auto;html=1;entryX=0;entryY=0.5;entryDx=0;entryDy=0;" edge="1" parent="dNxyNK7c78bLwvsdeMH5-19" source="6jg0AIKtms3DlK0bJASd-8" target="6jg0AIKtms3DlK0bJASd-10">
          <mxGeometry relative="1" as="geometry" />
        </mxCell>
        <mxCell id="6jg0AIKtms3DlK0bJASd-15" style="edgeStyle=orthogonalEdgeStyle;rounded=0;orthogonalLoop=1;jettySize=auto;html=1;entryX=0;entryY=0.5;entryDx=0;entryDy=0;" edge="1" parent="dNxyNK7c78bLwvsdeMH5-19" source="6jg0AIKtms3DlK0bJASd-12" target="6jg0AIKtms3DlK0bJASd-14">
          <mxGeometry relative="1" as="geometry" />
        </mxCell>
        <mxCell id="6jg0AIKtms3DlK0bJASd-21" style="edgeStyle=orthogonalEdgeStyle;rounded=0;orthogonalLoop=1;jettySize=auto;html=1;exitX=0.25;exitY=1;exitDx=0;exitDy=0;entryX=0;entryY=0.5;entryDx=0;entryDy=0;entryPerimeter=0;" edge="1" parent="dNxyNK7c78bLwvsdeMH5-19" source="6jg0AIKtms3DlK0bJASd-16" target="6jg0AIKtms3DlK0bJASd-20">
          <mxGeometry relative="1" as="geometry" />
        </mxCell>
        <mxCell id="6jg0AIKtms3DlK0bJASd-24" value="" style="edgeStyle=orthogonalEdgeStyle;rounded=0;orthogonalLoop=1;jettySize=auto;html=1;" edge="1" parent="dNxyNK7c78bLwvsdeMH5-19" source="6jg0AIKtms3DlK0bJASd-16" target="6jg0AIKtms3DlK0bJASd-23">
          <mxGeometry relative="1" as="geometry" />
        </mxCell>
      </root>
    </mxGraphModel>
  </diagram>
</mxfile>
